<?xml version="1.0" encoding="UTF-8"?> <svg xmlns="http://www.w3.org/2000/svg" xmlns:xlink="http://www.w3.org/1999/xlink" id="レイヤー_1" data-name="レイヤー 1" width="119.83" height="33" viewBox="0 0 119.83 33"><defs><style>.cls-1{fill:#514c46;}.cls-2{fill:url(#名称未設定グラデーション_9);}.cls-3{fill:url(#名称未設定グラデーション_9-2);}.cls-4{fill:url(#名称未設定グラデーション_9-3);}.cls-5{fill:url(#名称未設定グラデーション_9-4);}.cls-6{fill:url(#名称未設定グラデーション_9-5);}.cls-7{fill:url(#名称未設定グラデーション_9-6);}.cls-8{fill:url(#名称未設定グラデーション_9-7);}.cls-9{fill:url(#名称未設定グラデーション_9-8);}.cls-10{fill:url(#名称未設定グラデーション_9-9);}</style><linearGradient id="名称未設定グラデーション_9" x1="-144.82" y1="119.78" x2="-143.26" y2="92.96" gradientTransform="matrix(1, 0, 0, -1, 202.5, 117)" gradientUnits="userSpaceOnUse"><stop offset="0" stop-color="#fece79"></stop><stop offset="0.26" stop-color="#f4c06d"></stop><stop offset="0.75" stop-color="#d89b4e"></stop><stop offset="1" stop-color="#c8863c"></stop></linearGradient><linearGradient id="名称未設定グラデーション_9-2" x1="-148.17" y1="119.59" x2="-146.62" y2="92.77" xlink:href="#名称未設定グラデーション_9"></linearGradient><linearGradient id="名称未設定グラデーション_9-3" x1="-151.23" y1="119.41" x2="-149.68" y2="92.59" xlink:href="#名称未設定グラデーション_9"></linearGradient><linearGradient id="名称未設定グラデーション_9-4" x1="-153.92" y1="119.25" x2="-152.37" y2="92.43" xlink:href="#名称未設定グラデーション_9"></linearGradient><linearGradient id="名称未設定グラデーション_9-5" x1="-156.27" y1="119.12" x2="-154.72" y2="92.3" xlink:href="#名称未設定グラデーション_9"></linearGradient><linearGradient id="名称未設定グラデーション_9-6" x1="-141.68" y1="119.96" x2="-140.13" y2="93.14" xlink:href="#名称未設定グラデーション_9"></linearGradient><linearGradient id="名称未設定グラデーション_9-7" x1="-138.78" y1="120.13" x2="-137.23" y2="93.31" xlink:href="#名称未設定グラデーション_9"></linearGradient><linearGradient id="名称未設定グラデーション_9-8" x1="-136.26" y1="120.28" x2="-134.71" y2="93.46" xlink:href="#名称未設定グラデーション_9"></linearGradient><linearGradient id="名称未設定グラデーション_9-9" x1="-134.12" y1="120.4" x2="-132.57" y2="93.58" xlink:href="#名称未設定グラデーション_9"></linearGradient></defs><title>a</title><path class="cls-1" d="M19.29,16.86l-1.51.25a1.42,1.42,0,0,0-1.14.92L10.23,34.5H9.62l-6.8-16a3.66,3.66,0,0,0-.55-1,1.16,1.16,0,0,0-.65-.34L.09,16.86v-.5c.63.05,1.91.08,3.84.08s3.39,0,4.32-.08v.5L6.61,17l-.85.15a.57.57,0,0,0-.43.3,1,1,0,0,0,0,.64,8.44,8.44,0,0,0,.41,1.17l4.93,11.93L15,19.06a8.29,8.29,0,0,0,.27-.95.8.8,0,0,0-.07-.57,1,1,0,0,0-.56-.32A11.41,11.41,0,0,0,13.49,17l-1.11-.14v-.5c.5.05,1.68.08,3.54.08s2.94,0,3.37-.08Z" transform="translate(-0.09 -1.5)"></path><path class="cls-1" d="M29.85,26.92H22.19A6.6,6.6,0,0,0,22.1,28a5.13,5.13,0,0,0,1.14,3.47,4,4,0,0,0,3.15,1.32,4.22,4.22,0,0,0,1.79-.37,7,7,0,0,0,1.75-1.27l.11.64a6.46,6.46,0,0,1-2.18,1.89A6.19,6.19,0,0,1,25,34.3a4.25,4.25,0,0,1-1.91-.43,4.8,4.8,0,0,1-1.53-1.21,5.68,5.68,0,0,1-1-1.82,7,7,0,0,1-.36-2.28,6.42,6.42,0,0,1,.41-2.29,5.44,5.44,0,0,1,1.12-1.86,5.18,5.18,0,0,1,1.73-1.22,5.25,5.25,0,0,1,2.18-.45,4.37,4.37,0,0,1,1.68.31,3.8,3.8,0,0,1,1.32.85,3.69,3.69,0,0,1,.88,1.32A5.21,5.21,0,0,1,29.85,26.92Zm-7.53-.64h4.77a1.19,1.19,0,0,0,.5-.12.41.41,0,0,0,.24-.29,1.45,1.45,0,0,0,0-.56A2.92,2.92,0,0,0,27.1,24a2,2,0,0,0-1.57-.58,2.94,2.94,0,0,0-2.09.77A3.82,3.82,0,0,0,22.32,26.28Z" transform="translate(-0.09 -1.5)"></path><path class="cls-1" d="M45.26,33.94a52.43,52.43,0,0,0-5.88,0v-.47l1.48-.22c.4-.06.61-.42.61-1.09V27.45A5.12,5.12,0,0,0,41,25a2.07,2.07,0,0,0-2-.9,4.81,4.81,0,0,0-3.37,1.67v6.69c0,.29.22.5.67.61l1.56.39v.47l-.94,0c-.34,0-.75,0-1.21,0H33c-.51,0-.93,0-1.27.07v-.47l1.45-.28c.37-.06.56-.33.56-.84V26.84a1.53,1.53,0,0,0-.35-1.17,2.44,2.44,0,0,0-1.24-.45v-.5a4.45,4.45,0,0,0,1.66-.82,4.79,4.79,0,0,0,1.29-1.66h.48v2.53a8.72,8.72,0,0,1,2.3-1.49,5.6,5.6,0,0,1,2.21-.54c2.16,0,3.23,1.27,3.23,3.82v5.52a1.85,1.85,0,0,0,.14.8.76.76,0,0,0,.56.37l1.2.22Z" transform="translate(-0.09 -1.5)"></path><path class="cls-1" d="M46.57,23.27H50.3V30.4a3.05,3.05,0,0,0,.46,1.9,2.12,2.12,0,0,0,1.69.56,4.92,4.92,0,0,0,3.34-1.37V24.8a1.08,1.08,0,0,0-.08-.44.59.59,0,0,0-.35-.27,5.61,5.61,0,0,0-.77-.18c-.33-.06-.77-.11-1.31-.17v-.47h4.49v8.16a3.83,3.83,0,0,0,.06.78.61.61,0,0,0,.25.42,1.07,1.07,0,0,0,.57.18,9.08,9.08,0,0,0,1,0,1.8,1.8,0,0,0,0,.22,1.62,1.62,0,0,1,0,.22l-3.93,1V32.19a14,14,0,0,1-2.19,1.6,4.05,4.05,0,0,1-2,.54,2.88,2.88,0,0,1-2.32-1,4.05,4.05,0,0,1-.88-2.73v-5.8a.76.76,0,0,0-.35-.72,5,5,0,0,0-1.46-.36Z" transform="translate(-0.09 -1.5)"></path><path class="cls-1" d="M68.16,25.92a2.78,2.78,0,0,0-.39-.89,3.61,3.61,0,0,0-.65-.8,4.14,4.14,0,0,0-.79-.57,1.7,1.7,0,0,0-.81-.22c-1.34,0-2,.59-2,1.78a1.53,1.53,0,0,0,.68,1.28,8,8,0,0,0,2,1q3.15,1.14,3.15,3.37a3.25,3.25,0,0,1-.32,1.45,3.21,3.21,0,0,1-.88,1.09,4.24,4.24,0,0,1-1.28.68,4.8,4.8,0,0,1-1.53.23,6.86,6.86,0,0,1-3.32-.72l-.28-3.18h.51a4.74,4.74,0,0,0,1.33,2.39,2.93,2.93,0,0,0,2,.87,2.37,2.37,0,0,0,1.6-.54,1.79,1.79,0,0,0,.63-1.43c0-1-.88-1.87-2.62-2.48a7.61,7.61,0,0,1-2.66-1.44,2.71,2.71,0,0,1-.8-2.05,2.54,2.54,0,0,1,.31-1.22,2.73,2.73,0,0,1,.84-.95,3.87,3.87,0,0,1,1.24-.6,5.3,5.3,0,0,1,1.51-.21,5.54,5.54,0,0,1,2.87.67l.17,2.51Z" transform="translate(-0.09 -1.5)"></path><path class="cls-1" d="M83.71,26l-2.22,6.32a1,1,0,0,0-.06.66c.06.14.33.23.84.26l2,.14v.5l-1.13,0h-4.6c-.57,0-.94,0-1.13,0v-.5l1.76-.14a1.44,1.44,0,0,0,1.28-1l6.27-16.77h.86l6.16,16.58a2.17,2.17,0,0,0,.36.64,1.67,1.67,0,0,0,.62.31l1.53.47v.47c-.89,0-2.09-.08-3.6-.08H91.1c-.48,0-.93,0-1.32,0l-1.11,0v-.47l1.84-.28a4.08,4.08,0,0,0,.62-.13.46.46,0,0,0,.29-.19.45.45,0,0,0,0-.31,2.05,2.05,0,0,0-.14-.46L89.09,26Zm5.13-.7-2.48-6.94L84,25.33Z" transform="translate(-0.09 -1.5)"></path><path class="cls-1" d="M97.06,34v-.45l1.34-.25a1.06,1.06,0,0,0,.71-.41,2.36,2.36,0,0,0,.15-1V26.5a1.21,1.21,0,0,0-.23-.81,2.22,2.22,0,0,0-1-.41l-.72-.17,0-.42a7.23,7.23,0,0,0,1.87-.9,4.59,4.59,0,0,0,1.37-1.69h.5c0,.5.06,1,.08,1.62s0,1.18,0,1.83a7.2,7.2,0,0,1,.63-1,7.81,7.81,0,0,1,.85-.93,2.63,2.63,0,0,1,1.7-.92,1.46,1.46,0,0,1,1.08.39,1.36,1.36,0,0,1,.39,1,1.15,1.15,0,0,1-.32.88,1,1,0,0,1-.79.32,2,2,0,0,1-1-.28,1.9,1.9,0,0,0-.86-.28.86.86,0,0,0-.57.28,3.71,3.71,0,0,0-.55.67,5.23,5.23,0,0,0-.41.82,1.93,1.93,0,0,0-.17.71v4.66a1.39,1.39,0,0,0,.24,1,1.88,1.88,0,0,0,1,.35l2,.3V34c-.48,0-1-.06-1.63-.08s-1.25,0-1.94,0h-.39c-.65,0-1.26,0-1.82,0S97.55,33.93,97.06,34Z" transform="translate(-0.09 -1.5)"></path><path class="cls-1" d="M119.91,34c-.35,0-.79-.06-1.31-.08s-1.1,0-1.75,0-1.24,0-1.76,0-1,0-1.31.08V33.5l1.2-.11c.41,0,.61-.11.61-.26a2,2,0,0,0-.53-.93c-.35-.44-.91-1.15-1.67-2.13l-.69-.91a5.81,5.81,0,0,0-.49-.54,1.46,1.46,0,0,0-.35-.26.53.53,0,0,0-.25-.07h-.81v3.87A1.62,1.62,0,0,0,111,33a1,1,0,0,0,.55.26l1,.2V34c-.3,0-.68-.06-1.13-.08s-1,0-1.58,0-1.11,0-1.56,0-.81,0-1.11.08V33.5l1-.17a.85.85,0,0,0,.64-.27,1.88,1.88,0,0,0,.14-.9V18.37a2.37,2.37,0,0,0,0-.53.58.58,0,0,0-.24-.32,1.34,1.34,0,0,0-.52-.21,7,7,0,0,0-.92-.17v-.42a8.56,8.56,0,0,0,1.54-.46,11.09,11.09,0,0,0,1.58-.79h.45V27.76a2.11,2.11,0,0,0,1.1-.34,13.06,13.06,0,0,0,1.46-1.09,13.77,13.77,0,0,0,1.33-1.14,1.05,1.05,0,0,0,.37-.64c0-.37-.59-.65-1.78-.83v-.48H119v.48a6.28,6.28,0,0,0-3.46,1.47l-2.34,2c.39.46.83,1,1.32,1.68s1,1.3,1.51,1.91a18.79,18.79,0,0,0,1.49,1.63,2.9,2.9,0,0,0,1.22.83l.62.14.58.11Z" transform="translate(-0.09 -1.5)"></path><path class="cls-2" d="M59.09,2.22V15.85H57.65V2.22a.71.71,0,0,1,.72-.72A.72.72,0,0,1,59.09,2.22Z" transform="translate(-0.09 -1.5)"></path><path class="cls-3" d="M56.48,15.88,55,16,53.71,5.48a.72.72,0,0,1,.62-.81.74.74,0,0,1,.82.62Z" transform="translate(-0.09 -1.5)"></path><path class="cls-4" d="M53.89,16.11c-.49.07-1,.14-1.44.23L50.33,7.93a.71.71,0,0,1,.52-.88.72.72,0,0,1,.88.53Z" transform="translate(-0.09 -1.5)"></path><path class="cls-5" d="M51.46,16.53c-.49.11-1,.24-1.41.37l-2.51-6.62a.73.73,0,0,1,1.36-.52Z" transform="translate(-0.09 -1.5)"></path><path class="cls-6" d="M49.08,17.22a12.86,12.86,0,0,0-1.34.56l-2.3-4.56a.72.72,0,1,1,1.29-.65Z" transform="translate(-0.09 -1.5)"></path><path class="cls-7" d="M63,5.48,61.66,16q-.7-.08-1.44-.12L61.55,5.29a.73.73,0,0,1,.81-.62A.72.72,0,0,1,63,5.48Z" transform="translate(-0.09 -1.5)"></path><path class="cls-8" d="M66.37,7.93l-2.15,8.48c-.45-.1-.94-.18-1.43-.25L65,7.57A.72.72,0,0,1,65.84,7,.73.73,0,0,1,66.37,7.93Z" transform="translate(-0.09 -1.5)"></path><path class="cls-9" d="M69.15,10.28,66.6,17c-.45-.14-.91-.27-1.4-.39l2.59-6.86a.73.73,0,0,1,1.36.52Z" transform="translate(-0.09 -1.5)"></path><path class="cls-10" d="M71.26,13.22l-2.37,4.71a12.65,12.65,0,0,0-1.33-.59L70,12.56a.73.73,0,0,1,1-.32A.74.74,0,0,1,71.26,13.22Z" transform="translate(-0.09 -1.5)"></path></svg> 